<svg viewBox="0 0 600 300" xmlns="http://www.w3.org/2000/svg" data-name="Layer 1" id="Layer_1">
  <defs>
    <style>
      .cls-1 {
        fill: #01ab94;
      }

      .cls-2 {
        font-size: 60px;
        stroke: #000;
        stroke-linecap: round;
        stroke-linejoin: round;
        font-family: AllRoundGothic-Medium;
        font-weight: 500;
      }
    </style>
  </defs>
  <title>Artboard 1</title>
  <path d="M119.79,46.39H134.6c.28.53.79.32,1.21.38,3.28.44,6.59.7,9.83,1.33A99.76,99.76,0,0,1,225.12,165c-8.71,46-49,80.11-95.81,80.94-20.75.37-40-5-57.2-16.62Q35.63,204.62,28.48,161c-.36-2.19-.19-4.48-1.09-6.59V137.62c.65-.29.39-.9.44-1.36A96.81,96.81,0,0,1,41,95.94c16.37-27,40.14-43.27,71.39-48.46C114.85,47.07,117.39,47.2,119.79,46.39Zm32.58,49.17a39,39,0,0,0-34,20.54,37.79,37.79,0,0,0-4.5,17c0,1.31.47,2.17,1.85,2.22s2-.74,2.09-2c0-.26,0-.52,0-.78.69-10.26,4.8-18.88,12.9-25.23,21.45-16.82,46.7-3.54,54.33,13.48,2.48,5.53,2.8,11.18,0,16.75a23.48,23.48,0,0,1-8.75,9.21,33.58,33.58,0,0,0-7,5.62c-4.74,5.28-6.71,11.74-7.93,18.53-.81,4.53-1.25,9.14-2.74,13.52-1.23,3.63-3.41,6.42-7.22,7.58a19.29,19.29,0,0,1-11.88,0c-7-2.33-11.35-8.34-11.76-16.24-.07-1.4-.28-2.71-2.08-2.65s-2,1.33-1.92,2.76a21.23,21.23,0,0,0,14.71,20c12.32,4,22-1.35,25-13.87.94-4,1.52-8.16,2.25-12.25,1.5-8.45,5.27-15.4,13-19.81a24.63,24.63,0,0,0,3.74-2.8c8.11-7,10.56-16.78,6.71-26.77C183.87,106.37,167.78,95.58,152.37,95.56ZM148,116.85A13.33,13.33,0,0,1,158,111.93c7.24-.29,13,4.69,14.28,12.44.23,1.35.73,2.29,2.19,2.12s1.87-1.17,1.73-2.54a18,18,0,0,0-13.06-15.38,17.66,17.66,0,0,0-19,6.64,18.06,18.06,0,0,0-.69,20.15c.92,1.46,1.93,1.92,3.56,1.1a4.68,4.68,0,0,1,5,.36,4.79,4.79,0,0,1,1.65,6,4.73,4.73,0,0,1-5.93,2.74c-1.47-.43-2.86-.6-3.29,1.2s1,2.31,2.36,2.78a4.37,4.37,0,0,0,1,.15,8.68,8.68,0,0,0,9-4.24,8.32,8.32,0,0,0-.07-9.39,8.51,8.51,0,0,0-9-4,1.49,1.49,0,0,1-1.94-1,14.52,14.52,0,0,1-.67-8.4c.23-1.1.78-1.43,1.81-1.61,10.32-1.82,20.58,8,19.2,18.43-1,7.14-4.8,12-11.6,14.53-3.42,1.27-5.69,3.53-5.93,7.42a5.7,5.7,0,0,1-.62,2,8.07,8.07,0,0,1-14.63-6.79c.56-1.39.7-2.58-.88-3.25s-2.28.41-2.78,1.63a11.68,11.68,0,0,0,1.83,12.6,11.33,11.33,0,0,0,12.06,4,11.07,11.07,0,0,0,8.82-9.12c.53-2.91,1.94-4.19,4.45-5.18a20.8,20.8,0,0,0,11.14-28.57C163.94,120.82,157.19,117.1,148,116.85ZM78.89,145.78c.31.78.55,1.36.76,1.95l4,11.38c.37,1.07.8,2.13,2.13,2.24s1.86-.95,2.36-1.95c2.37-4.83,4.73-9.67,7.12-14.49.21-.4.21-1.06,1-1q4.58,12.78,9.18,25.59c.4,1.13.61,2.5,2.22,2.61s1.92-1.1,2.5-2.1c3.38-5.83,6.87-11.62,10.1-17.53,1.43-2.61,2.78-4.69,6.26-4a1.79,1.79,0,0,0,2.15-2c0-1.32-.81-2-2.14-2-1.5,0-3,0-4.49,0a2.56,2.56,0,0,0-2.64,1.57c-.43.87-1,1.69-1.46,2.53l-9.66,16.69c-.37-1-.67-1.67-.93-2.4q-4.33-12.07-8.69-24.15c-.39-1.08-.64-2.36-2.12-2.47s-2,1.18-2.53,2.27q-3.46,7-6.95,13.93c-.25.49-.32,1.15-1.06,1.35l-4.52-13.05c-.33-1-.77-1.82-1.91-2s-1.75.63-2.26,1.51c-1,1.68-2,3.32-3,5a2,2,0,0,1-2.15,1.2c-2.21-.07-4.42,0-6.62,0-1.34,0-2.16.65-2.17,1.95a1.88,1.88,0,0,0,2.13,2,48.37,48.37,0,0,1,5.65,0c3.35.41,5.84-.44,7-3.86A4.37,4.37,0,0,1,78.89,145.78Z" class="cls-1"></path>
  <text transform="translate(254.53 136.08)" class="cls-2">isomer <tspan y="55" x="0">awareness</tspan></text>
</svg>
