<svg viewBox="0 0 170 50" xmlns="http://www.w3.org/2000/svg" data-name="Layer 1" id="Layer_1">
  <defs>
    <style>
      .cls-1 {
        fill: #01ab94;
      }

      .cls-2 {
        font-size: 14px;
        stroke: #000;
        stroke-linecap: round;
        stroke-linejoin: round;
        stroke-width: 0.23px;
        font-family: AllRoundGothic-Medium;
        font-weight: 500;
      }
    </style>
  </defs>
  <title>Artboard 1</title>
  <path d="M43.56,1.72H47c.07.12.19.07.28.08.77.11,1.54.17,2.3.31a23.29,23.29,0,0,1-3.81,46.17A22.54,22.54,0,0,1,32.44,44.4,22.93,22.93,0,0,1,22.26,28.46,6.62,6.62,0,0,0,22,26.92V23c.15-.07.09-.21.1-.32a22.59,22.59,0,0,1,3.08-9.41A23,23,0,0,1,41.84,2,12.51,12.51,0,0,0,43.56,1.72Zm7.61,11.47A9.1,9.1,0,0,0,43.24,18a8.79,8.79,0,0,0-1.06,4c0,.31.11.51.44.52s.46-.17.48-.47a1.15,1.15,0,0,0,0-.19,7.81,7.81,0,0,1,3-5.88c5-3.93,10.9-.83,12.68,3.14a4.41,4.41,0,0,1,0,3.91,5.48,5.48,0,0,1-2,2.15,7.88,7.88,0,0,0-1.62,1.31,8.37,8.37,0,0,0-1.85,4.33,22.54,22.54,0,0,1-.64,3.15A2.55,2.55,0,0,1,51,35.68a4.52,4.52,0,0,1-2.77,0,4,4,0,0,1-2.74-3.79c0-.33-.07-.63-.49-.62s-.46.31-.45.64A5,5,0,0,0,48,36.58c2.88.94,5.15-.31,5.83-3.23.22-1,.35-1.91.52-2.86a6.21,6.21,0,0,1,3-4.63,5,5,0,0,0,.88-.65A5.34,5.34,0,0,0,59.77,19,9.69,9.69,0,0,0,51.17,13.19Zm-1,5A3.12,3.12,0,0,1,52.49,17a3.24,3.24,0,0,1,3.33,2.9c.06.32.17.54.51.5s.44-.27.41-.59a4.19,4.19,0,0,0-3.05-3.59,4.13,4.13,0,0,0-4.44,1.55,4.24,4.24,0,0,0-.16,4.7c.22.34.45.45.83.26a1.1,1.1,0,0,1,1.17.08,1.12,1.12,0,0,1,.38,1.41,1.1,1.1,0,0,1-1.38.64c-.34-.1-.67-.14-.77.28s.24.54.55.65a1.6,1.6,0,0,0,.23,0,2,2,0,0,0,2.09-1,2,2,0,0,0,0-2.19,2,2,0,0,0-2.11-.93c-.24,0-.36,0-.45-.24a3.36,3.36,0,0,1-.16-2c0-.25.18-.33.42-.37a4,4,0,0,1,4.48,4.3,3.93,3.93,0,0,1-2.7,3.39,1.89,1.89,0,0,0-1.39,1.73,1.34,1.34,0,0,1-.14.47,1.88,1.88,0,0,1-3.42-1.58c.13-.33.17-.6-.2-.76s-.53.09-.65.38A2.73,2.73,0,0,0,46.28,30a2.78,2.78,0,0,0,4.87-1.2,1.43,1.43,0,0,1,1-1.21A4.85,4.85,0,0,0,54.79,21,4.91,4.91,0,0,0,50.14,18.16ZM34,24.91c.07.18.13.32.18.46.31.88.61,1.77.92,2.65.09.25.19.5.5.53s.43-.23.55-.46c.55-1.13,1.1-2.26,1.66-3.38.05-.1.05-.25.24-.25q1.07,3,2.14,6c.09.26.14.58.52.6s.45-.25.58-.49c.79-1.36,1.61-2.71,2.36-4.09.33-.61.65-1.09,1.46-.92a.42.42,0,0,0,.5-.46c0-.31-.19-.46-.5-.46h-1a.6.6,0,0,0-.62.36c-.1.21-.23.4-.34.59-.74,1.29-1.49,2.57-2.26,3.9l-.21-.56-2-5.64c-.09-.25-.15-.55-.5-.57s-.46.27-.59.53l-1.62,3.25c-.06.11-.07.27-.25.31l-1.05-3c-.08-.23-.18-.43-.45-.46s-.41.15-.53.35c-.22.39-.47.77-.68,1.18a.47.47,0,0,1-.5.28c-.52,0-1,0-1.55,0a.45.45,0,0,0-.51.46.44.44,0,0,0,.5.46,11.61,11.61,0,0,1,1.32,0,1.33,1.33,0,0,0,1.64-.9A1,1,0,0,1,34,24.91Z" class="cls-1"></path>
  <text transform="translate(75.01 22.68)" class="cls-2">isomer <tspan y="12.84" x="0">awareness</tspan></text>
</svg>
